<svg xmlns="http://www.w3.org/2000/svg" width="98" height="35" viewBox="0 0 98 35" fill="none">
  <path fill-rule="evenodd" clip-rule="evenodd" d="M0 2.75448C0 1.23322 1.23902 0 2.76743 0H11.6627C18.1039 0 23.3255 5.19714 23.3255 11.6082C23.3255 18.0192 18.1039 23.2163 11.6627 23.2163H9.07661L10.1715 19.8524C14.6754 19.6624 18.4639 16.7277 19.8844 12.6894C20.076 12.1447 19.604 11.6236 19.0246 11.6459C18.8535 11.6525 18.6815 11.6558 18.5087 11.6558C13.3183 11.6558 8.83227 8.66129 6.70668 4.31708C6.49048 3.87519 5.82834 3.85256 5.61866 4.29756L0 16.2215V2.75448ZM41.9241 14.3722C41.9241 19.2568 37.9457 23.2165 33.0382 23.2165C28.1307 23.2165 24.1523 19.2568 24.1523 14.3722C24.1523 9.48763 28.1307 5.52789 33.0382 5.52789C37.9457 5.52789 41.9241 9.48763 41.9241 14.3722ZM38.3142 14.3722C38.3142 17.2724 35.952 19.6235 33.0382 19.6235C30.1245 19.6235 27.7622 17.2724 27.7622 14.3722C27.7622 11.472 30.1245 9.1209 33.0382 9.1209C35.952 9.1209 38.3142 11.472 38.3142 14.3722ZM51.6427 23.2166C56.5502 23.2166 60.5286 19.2568 60.5286 14.3723C60.5286 9.48769 56.5502 5.52795 51.6427 5.52795C46.7352 5.52795 42.7568 9.48769 42.7568 14.3723C42.7568 19.2568 46.7352 23.2166 51.6427 23.2166ZM51.6427 19.6236C54.5565 19.6236 56.9187 17.2725 56.9187 14.3723C56.9187 11.4721 54.5565 9.12096 51.6427 9.12096C48.729 9.12096 46.3667 11.4721 46.3667 14.3723C46.3667 17.2725 48.729 19.6236 51.6427 19.6236ZM97.7297 14.3722C97.7297 19.2568 93.7513 23.2166 88.8438 23.2166C83.9363 23.2166 79.9579 19.2568 79.9579 14.3722C79.9579 9.48766 83.9363 5.52792 88.8438 5.52792C93.7513 5.52792 97.7297 9.48766 97.7297 14.3722ZM94.1198 14.3722C94.1198 17.2725 91.7575 19.6235 88.8438 19.6235C85.9301 19.6235 83.5678 17.2725 83.5678 14.3722C83.5678 11.472 85.9301 9.12092 88.8438 9.12092C91.7575 9.12092 94.1198 11.472 94.1198 14.3722ZM75.5214 21.4879C74.0456 22.5742 72.2198 23.2165 70.2433 23.2165C65.3358 23.2165 61.3574 19.2568 61.3574 14.3722C61.3574 9.48763 65.3358 5.52789 70.2433 5.52789C72.2203 5.52789 74.0466 6.17054 75.5227 7.25741C75.558 6.29622 76.352 5.52783 77.3264 5.52783C78.3233 5.52783 79.1313 6.33214 79.1313 7.32433V23.2165C79.1313 29.3221 75.1302 34.2719 68.9958 34.2719H66.2187C65.2218 34.2719 64.4141 33.4676 64.4141 32.4754C64.4141 31.4831 65.2218 30.6789 66.2187 30.6789H68.9958C73.1367 30.6789 75.5214 27.3378 75.5214 23.2165V21.4879ZM70.2433 19.6235C73.1571 19.6235 75.5193 17.2724 75.5193 14.3722C75.5193 11.472 73.1571 9.1209 70.2433 9.1209C67.3296 9.1209 64.9673 11.472 64.9673 14.3722C64.9673 17.2724 67.3296 19.6235 70.2433 19.6235Z" fill="black"/>
</svg>